<svg xmlns="http://www.w3.org/2000/svg" id="Layer_2" data-name="Layer 2" viewBox="0 0 383.28 345.59"><defs><style>      .cls-1 {        fill: #f42816;      }      .cls-2 {        fill: #01329f;      }    </style></defs><g id="Layer_1-2" data-name="Layer 1"><g><path class="cls-2" d="M383.28,329.19c-.23,.43-.53,.83-.68,1.28-3.04,9.53-10.05,14.99-19.95,15.01-38.55,.08-77.1,.04-115.64,.02-4.4,0-6.97-2.1-7.05-5.53-.08-3.64,2.42-5.67,7.15-5.68,37.67-.01,75.35,0,113.02,0,8.99,0,11.91-2.9,11.91-11.82,0-35.55,0-71.11,0-106.66v-4.2H165.52c0,1.51,0,2.84,0,4.18,0,35.68,0,71.36,0,107.04,0,8.35,3.13,11.46,11.54,11.47,13.72,.01,27.45-.02,41.17,.02,4.46,.01,6.96,2.51,6.43,6.3-.46,3.25-2.68,4.9-5.71,4.84-27.99-.56-56.13,2.23-83.87-4.13-35.08-8.04-64.88-25.23-89.26-51.54C20.02,261.92,4.92,228.89,1,191.11c-4.16-40.06,4.67-77.27,26.21-111.39,.59-.94,1.15-1.9,1.78-2.95-15.87-10.06-23.28-24.12-18.85-42.6,3.71-15.46,14.19-25.16,29.93-27.8,17.96-3.01,31.15,4.79,39.98,19.65,10.19-4.82,20.04-10.21,30.42-14.26,77.88-30.37,166.1-.3,209.65,71.14,10.88,17.85,18.51,36.92,22.47,57.45,.21,1.1,.41,2.22,.45,3.33,.1,3.04-1.42,5.1-4.32,5.71-3.09,.65-5.49-.69-6.39-3.77-.94-3.22-1.35-6.59-2.23-9.83-16.2-59.65-53.8-98.99-112.44-118.31-.33-.11-.69-.14-1.61,.42,2.59,2.4,5.38,4.61,7.73,7.22,17.65,19.58,28.41,42.86,35.94,67.8,6.52,21.59,9.96,43.71,10.71,66.25,.06,1.72,.21,3.43,.33,5.37,1.84,0,3.33,0,4.81,0,27.69,0,55.39,0,83.08,0,14.37,0,19.25,3.26,24.63,16.44v148.21ZM167.06,11.72c-10.35,1.28-19,5.44-26.79,11.47-15.71,12.17-25.9,28.47-33.97,46.25-11.46,25.25-17.09,51.97-19.39,79.47-.43,5.14-.58,10.31-.85,15.45h81c0-1.64,0-3.1,0-4.55,0-25.82,0-51.64,.02-77.46,0-1.48,.03-3.03,.47-4.42,.85-2.71,2.98-4.06,5.75-3.74,2.73,.31,4.55,1.97,4.9,4.84,.15,1.23,.09,2.49,.09,3.74,0,25.69,0,51.39,0,77.08,0,1.45,0,2.91,0,4.52h80.99c0-1.02,.02-1.86,0-2.7-.42-16.88-2.53-33.56-6.33-49.99-5.9-25.59-14.89-49.91-30.94-71.07-9.41-12.41-20.54-22.79-35.92-27.47-2.4-.73-4.93-1.05-7.8-1.65v4.79c0,11.35,0,22.7,0,34.05,0,6.05-1.77,8.74-5.68,8.66-3.89-.08-5.54-2.73-5.54-8.89,0-10.35,0-20.71,0-31.06,0-2.34,0-4.69,0-7.32ZM86.09,175.97c0,1.4-.1,2.62,.02,3.83,1.48,14.99,2.22,30.1,4.68,44.93,4.39,26.52,13.1,51.63,28.15,74.19,8.19,12.28,18.04,22.91,31.41,29.76,1.14,.58,2.35,1.04,3.76,1.65V175.97H86.09Zm-74.83-.09c1.1,35.71,11.98,67.55,33.7,95.5,20.95,26.95,65.94,56.94,82.41,56.13-6.21-7.95-13.59-15.99-19.39-25.04-20.66-32.28-29.22-68.41-32.32-106.12-.56-6.78-.75-13.59-1.11-20.47H11.26ZM128.24,17.83c-.38,0-.77-.08-1.1,.01-14.81,4.28-28.69,10.66-41.58,19.1-.95,.62-1.68,2.45-1.59,3.65,1.59,22.14-16.95,42.05-40.95,40-2.22-.19-3.46,.49-4.49,2.32-3.96,7.05-8.39,13.87-11.9,21.14-9.15,18.93-14.06,39-15.1,60.23h63.27c.71-20.08,2.94-39.73,7.62-59.03,6.27-25.89,15.77-50.38,32.12-71.73,4.19-5.47,9.07-10.42,13.7-15.68Zm37.3,182.09h206.5c0-4.25,0-8.23,0-12.21,0-9.2-2.78-11.95-12.1-11.95-60.71,0-121.42,0-182.13,0-1.12,0-2.25-.04-3.37,.03-5.16,.31-8.67,3.64-8.86,8.79-.19,4.97-.04,9.96-.04,15.34ZM72.72,43.26c.02-14.65-11.67-26.32-26.34-26.3-14.5,.02-26.14,11.58-26.21,26.04-.08,14.68,11.55,26.46,26.15,26.5,14.65,.04,26.39-11.63,26.41-26.25Z"></path><path class="cls-1" d="M209.77,295.9c0-7.05-.02-13.58,0-20.11,.03-6.96,3.97-11.04,10.9-11.24,3.58-.1,7.18-.08,10.76,0,7.3,.14,11.28,4.21,11.31,11.5,.03,6.33,.04,12.66,.07,18.99,0,.18,.16,.36,.31,.7h8.8v-3.74c0-15.4,0-30.81,0-46.21,0-8.79,3.75-12.52,12.5-12.53,2.95,0,5.91,0,8.86,0,7.6,.02,11.69,4.09,11.7,11.79,.03,15.62,0,31.23,0,46.85,0,1.23,0,2.46,0,3.85h9.08c0-1.28,0-2.41,0-3.54,0-15.62,0-31.23,0-46.85,0-8.1,3.97-12.08,12.02-12.09,3.06,0,6.12,0,9.18,0,7.89,.02,11.8,3.93,11.81,11.9,.02,15.62,0,31.23,0,46.85v3.9c2.41,0,4.58-.05,6.75,.01,2.98,.09,4.99,1.91,5.09,4.52,.1,2.73-1.93,4.74-5.05,4.95-.84,.06-1.69,.02-2.53,.02-41.78,0-83.56,0-125.34,0-1.16,0-2.35,.1-3.47-.13-2.59-.55-4.15-2.26-3.97-4.93,.18-2.62,1.79-4.26,4.52-4.4,2.08-.11,4.18-.02,6.65-.02Zm65.56-53.16c-3.71,0-7.08,.19-10.42-.06-2.84-.21-3.56,.79-3.53,3.54,.12,15.49,.05,30.98,.07,46.47,0,1,.14,2,.22,3.03h13.66v-52.99Zm42,52.97v-52.97c-3.55,0-6.81,.18-10.05-.05-2.85-.2-3.78,.63-3.75,3.63,.16,15.39,.07,30.77,.07,46.16,0,1.02,0,2.05,0,3.23h13.73Zm-97.89-.09h13.7v-21.35h-13.7v21.35Z"></path><path class="cls-2" d="M51.99,43.07c0,2.24,.15,4.5-.04,6.72-.28,3.25-2.68,5.54-5.6,5.35-3.14-.2-5.22-1.96-5.37-5.15-.21-4.47-.21-8.97,0-13.45,.15-3.19,2.22-4.95,5.36-5.16,2.92-.2,5.33,2.09,5.61,5.33,.19,2.1,.03,4.23,.03,6.35Z"></path></g></g></svg>